<?xml version="1.0" encoding="iso-8859-1"?>
<!-- Generator: Adobe Illustrator 19.0.0, SVG Export Plug-In . SVG Version: 6.00 Build 0)  -->
<svg version="1.1" id="Capa_1" xmlns="http://www.w3.org/2000/svg" xmlns:xlink="http://www.w3.org/1999/xlink" x="0px" y="0px"
	 viewBox="0 0 512 512" style="enable-background:new 0 0 512 512;" xml:space="preserve">
<path style="fill:#C2E2DD;" d="M369.32,60.266H142.68c-34.137,0-61.811,27.674-61.811,61.811v328.113
	c0,34.137,27.674,61.811,61.811,61.811h226.64c34.137,0,61.811-27.674,61.811-61.811V122.076
	C431.131,87.939,403.457,60.266,369.32,60.266z"/>
<path style="fill:#A9DAD9;" d="M348.716,122.076v328.113c0,17.041-13.864,30.905-30.905,30.905H89.159
	C99.848,499.565,119.806,512,142.68,512h226.64c34.137,0,61.811-27.674,61.811-61.811V122.076c0-34.137-27.674-61.811-61.811-61.811
	l-51.509,30.905C334.852,91.171,348.716,105.035,348.716,122.076z"/>
<path style="fill:#A47C64;" d="M435.681,78.329l-35.456-28.365c-2.793,0-54.497,0-95.352,0c-24.424,0-44.971,0-48.874,0h-48.874
	h-57.019h-38.332L76.319,78.329c-5.323,4.258-2.312,12.842,4.504,12.842h46.558h69.256h38.76c0.813,0,8.586,0,20.604,0
	c14.954,0,36.483,0,59.362,0c53.066,0,113.397,0,115.814,0C437.993,91.171,441.004,82.587,435.681,78.329z"/>
<path style="fill:#BC9D8C;" d="M96.322,15.453v24.209c0,8.534,6.919,15.453,15.453,15.453h288.451
	c8.534,0,15.453-6.919,15.453-15.453V15.453C415.678,6.919,408.759,0,400.225,0H111.775C103.241,0,96.322,6.919,96.322,15.453z"/>
<path style="fill:#D7BDAF;" d="M111.775,0c-8.534,0-15.453,6.919-15.453,15.453V29.36h277.634c8.534,0,15.453-6.919,15.453-15.453V0
	H111.775z"/>
<path style="fill:#DE6A39;" d="M256,204.491H111.775v245.698c0,17.041,13.864,30.905,30.905,30.905h41.207h164.829l51.509-276.604
	H256z"/>
<path style="fill:#D3562A;" d="M348.716,204.491v276.604h20.604c17.041,0,30.905-13.864,30.905-30.905V204.491H348.716z"/>
<g>
</g>
<g>
</g>
<g>
</g>
<g>
</g>
<g>
</g>
<g>
</g>
<g>
</g>
<g>
</g>
<g>
</g>
<g>
</g>
<g>
</g>
<g>
</g>
<g>
</g>
<g>
</g>
<g>
</g>
</svg>
