<?xml version="1.0" encoding="iso-8859-1"?>
<!-- Generator: Adobe Illustrator 19.0.0, SVG Export Plug-In . SVG Version: 6.00 Build 0)  -->
<svg version="1.1" id="Capa_1" xmlns="http://www.w3.org/2000/svg" xmlns:xlink="http://www.w3.org/1999/xlink" x="0px" y="0px"
	 viewBox="0 0 389.632 389.632" style="enable-background:new 0 0 389.632 389.632;" xml:space="preserve">
<g>
	<g>
		<path d="M315.583,81.92c-9.216-9.216-20.992-13.824-33.792-13.824c0,0,0,0-0.512,0l-10.752,0.512V54.784h30.208
			c3.072,0,5.12-2.048,5.12-5.12V5.12c0-3.072-2.048-5.12-5.12-5.12H89.791c-3.072,0-5.12,2.048-5.12,5.12v44.544
			c0,3.072,2.048,5.12,5.12,5.12h29.696V69.12h-11.264c-26.624,0-47.616,21.504-47.616,48.128V345.6
			c0,24.064,19.456,44.032,43.52,44.032h181.248c24.064,0,43.52-19.968,43.52-44.032V115.712
			C329.919,102.912,324.799,90.624,315.583,81.92z M94.911,44.032V9.728h200.704v34.304H94.911z M286.399,378.368h-181.76
			c-18.432,0-33.28-15.36-33.28-33.792V116.224c0-20.992,16.896-37.888,37.376-37.888h16.384c3.072,0,5.12-2.048,5.12-5.12V53.76
			h130.56v19.456c0,1.536,0.512,2.56,1.536,3.584c1.024,1.024,2.56,1.536,3.584,1.536l15.872-0.512
			c9.728,0,19.456,4.096,26.624,10.752c7.168,7.168,11.264,16.896,11.264,27.136v228.864h0
			C319.679,363.008,304.831,378.368,286.399,378.368z"/>
	</g>
</g>
<g>
	<g>
		<path d="M116.415,101.376c-14.336,0-26.112,11.776-26.112,26.112v62.464c0,3.072,2.048,5.12,5.12,5.12
			c3.072,0,5.12-2.048,5.12-5.12V128c0-8.704,7.168-15.872,15.872-15.872c3.072,0,5.12-2.048,5.12-5.12
			C121.535,103.936,119.487,101.376,116.415,101.376z"/>
	</g>
</g>
<g>
</g>
<g>
</g>
<g>
</g>
<g>
</g>
<g>
</g>
<g>
</g>
<g>
</g>
<g>
</g>
<g>
</g>
<g>
</g>
<g>
</g>
<g>
</g>
<g>
</g>
<g>
</g>
<g>
</g>
</svg>
